<svg xmlns="http://www.w3.org/2000/svg" viewBox="-0.00158813 0.00123229 27.49 32">
  <path d="M22.052 25.345c-2.206 1.446-5.021 2.208-8.309 2.135h-0.004c-0.199 0.004-0.39-0.004-0.585-0.005l-0.773 3.582c-0.178 1.202-0.69 1.263-1.139 0.136l-2.906-4.463c-1.029-0.339-1.978-0.785-2.835-1.337-3.573-2.307-5.585-6.394-5.5-11.648-0.137-8.484 5.19-13.925 13.737-13.739h0.004c8.549-0.189 13.876 5.254 13.739 13.739 0.085 5.219-1.899 9.288-5.43 11.601zM11.504 10.47c-0.622-0.621-1.676-0.621-2.299 0.001-0.311 0.311-0.475 0.708-0.475 1.149s0.164 0.839 0.475 1.149c0.311 0.311 0.708 0.475 1.149 0.475s0.839-0.164 1.149-0.475 0.475-0.708 0.475-1.149c0-0.441-0.164-0.838-0.475-1.15zM11.504 17.123c-0.622-0.62-1.676-0.621-2.299 0-0.311 0.311-0.475 0.708-0.475 1.15s0.164 0.838 0.475 1.149c0.315 0.315 0.702 0.475 1.149 0.475 0.441 0 0.839-0.164 1.149-0.475s0.475-0.708 0.475-1.149c0.001-0.441-0.164-0.839-0.475-1.15zM20.412 6.537c-0.507-0.506-1.364-0.504-1.863-0.004-0.119 0.118-0.214 0.251-0.294 0.421l-4.922 12.304c-0.070 0.178-0.106 0.354-0.106 0.523 0 0.367 0.13 0.693 0.376 0.942 0.248 0.253 0.575 0.387 0.945 0.387 0.342 0 0.826-0.127 1.188-0.734l4.949-12.353c0.076-0.17 0.114-0.355 0.114-0.552 0-0.357-0.134-0.68-0.387-0.933z" stroke="#FF0000" stroke-width="0.1" fill="#000000"/>
</svg>