<?xml version="1.0" encoding="UTF-8"?>
<svg width="26px" height="26px" viewBox="0 0 26 26" version="1.1" xmlns="http://www.w3.org/2000/svg" xmlns:xlink="http://www.w3.org/1999/xlink">
    <title>minuminus</title>
    <g id="minuminus" stroke="none" stroke-width="1" fill="none" fill-rule="evenodd">
        <path d="M13,26 C5.83732535,26 0,20.2115768 0,13 C0,5.78842315 5.83732535,0 13,0 C20.1626747,0 26,5.83732535 26,13 C26,20.1626747 20.1626747,26 13,26 Z M12.2644711,12.754491 C12.2644711,12.2145709 11.8233533,11.7734531 11.2834331,11.7734531 L5.88722555,11.7734531 C5.34730539,11.7734531 4.90618762,12.2145709 4.90618762,12.754491 L4.90618762,13.7355289 C4.90618762,14.2754491 5.34730539,14.7165669 5.88722555,14.7165669 L11.2834331,14.7165669 C11.8233533,14.7165669 12.2644711,14.2754491 12.2644711,13.7355289 L12.2644711,12.754491 Z M21.0948104,12.754491 C21.0948104,12.2145709 20.6536926,11.7734531 20.1137725,11.7734531 L14.7175649,11.7734531 C14.1776447,11.7734531 13.7365269,12.2145709 13.7365269,12.754491 L13.7365269,13.7355289 C13.7365269,14.2754491 14.1776447,14.7165669 14.7175649,14.7165669 L20.1137725,14.7165669 C20.6536926,14.7165669 21.0948104,14.2754491 21.0948104,13.7355289 L21.0948104,12.754491 Z" id="Shape" fill="#000000" fill-rule="nonzero"></path>
    </g>
</svg>