<?xml version="1.0" encoding="UTF-8"?>
<svg width="26px" height="26px" viewBox="0 0 26 26" version="1.1" xmlns="http://www.w3.org/2000/svg" xmlns:xlink="http://www.w3.org/1999/xlink">
    <title>plusplus</title>
    <g id="plusplus" stroke="none" stroke-width="1" fill="none" fill-rule="evenodd">
        <path d="M13,26 C5.83732535,26 0,20.2115768 0,13 C0,5.78842315 5.83732535,0 13,0 C20.1626747,0 26,5.83732535 26,13 C26,20.1626747 20.1626747,26 13,26 Z M12.2644711,12.754491 C12.2644711,12.2145709 11.8233533,11.7734531 11.2834331,11.7734531 L9.32135729,11.7734531 L9.32135729,9.81137725 C9.32135729,9.27145709 8.88023952,8.83033932 8.34031936,8.83033932 L7.8493014,8.83033932 C7.30938124,8.83033932 6.86826347,9.27145709 6.86826347,9.81137725 L6.86826347,11.7734531 L4.90618762,11.7734531 C4.36626747,11.7734531 3.9251497,12.2145709 3.9251497,12.754491 L3.9251497,13.245509 C3.9251497,13.7854291 4.36626747,14.2265469 4.90618762,14.2265469 L6.86826347,14.2265469 L6.86826347,16.1886228 C6.86826347,16.7285429 7.30938124,17.1696607 7.8493014,17.1696607 L8.34031936,17.1696607 C8.88023952,17.1696607 9.32135729,16.7285429 9.32135729,16.1886228 L9.32135729,14.2265469 L11.2834331,14.2265469 C11.8233533,14.2265469 12.2644711,13.7854291 12.2644711,13.245509 L12.2644711,12.754491 Z M22.0758483,12.754491 C22.0758483,12.2145709 21.6347305,11.7734531 21.0948104,11.7734531 L19.1327345,11.7734531 L19.1327345,9.81137725 C19.1327345,9.27145709 18.6916168,8.83033932 18.1516966,8.83033932 L17.6606786,8.83033932 C17.1207585,8.83033932 16.6796407,9.27145709 16.6796407,9.81137725 L16.6796407,11.7734531 L14.7175649,11.7734531 C14.1776447,11.7734531 13.7365269,12.2145709 13.7365269,12.754491 L13.7365269,13.245509 C13.7365269,13.7854291 14.1776447,14.2265469 14.7175649,14.2265469 L16.6796407,14.2265469 L16.6796407,16.1886228 C16.6796407,16.7285429 17.1207585,17.1696607 17.6606786,17.1696607 L18.1516966,17.1696607 C18.6916168,17.1696607 19.1327345,16.7285429 19.1327345,16.1886228 L19.1327345,14.2265469 L21.0948104,14.2265469 C21.6347305,14.2265469 22.0758483,13.7854291 22.0758483,13.245509 L22.0758483,12.754491 Z" id="Shape" fill="#000000" fill-rule="nonzero"></path>
    </g>
</svg>